<?xml version="1.0" encoding="utf-8"?>
<!-- Generator: Adobe Illustrator 22.0.1, SVG Export Plug-In . SVG Version: 6.00 Build 0)  -->
<svg version="1.1" id="Layer_1" xmlns="http://www.w3.org/2000/svg" xmlns:xlink="http://www.w3.org/1999/xlink" x="0px" y="0px"
	 viewBox="0 0 1440 320" style="enable-background:new 0 0 1440 320;" xml:space="preserve">
<style type="text/css">
	.st0{fill:#4844F7;fill-opacity:0.2;}
</style>
<path class="st0" d="M1046,178.6c130.7-35.7,192.7-12.3,294.5,5.5c39.7,7,99.5-9.4,99.5-9.4v192h-48c-48,0-144,0-240,0s-192,0-288,0
	s-192,0-288,0s-192,0-288,0s-192,0-240,0H0v-192l48-5.3c48-5.7,144-15.7,240,10.6c96,26.7,184.7,77.6,288,80
	C576,260.1,835.9,270.5,1046,178.6z"/>
</svg>
